<svg width="30" height="30" viewBox="0 0 30 30" fill="none" xmlns="http://www.w3.org/2000/svg">
<g clip-path="url(#clip0_2105_1403)">
<path d="M18.7246 15.9974L19.1698 13.1011H16.3918V11.2191C16.3918 10.4246 16.7806 9.65259 18.0259 9.65259H19.2881V7.18453C19.2881 7.18453 18.1386 6.9873 17.0454 6.9873C14.7577 6.9873 13.2588 8.37348 13.2588 10.8866V13.0955H10.7119V15.9918H13.2588V22.9959H16.3918V15.9918H18.7246V15.9974Z" fill="white"/>
<path d="M15 30C6.72802 30 0 23.272 0 15C0 6.72802 6.72802 0 15 0C23.272 0 30 6.72802 30 15C30 23.272 23.272 30 15 30ZM15 0.563486C7.03794 0.563486 0.563486 7.03794 0.563486 15C0.563486 22.9621 7.03794 29.4365 15 29.4365C22.9621 29.4365 29.4365 22.9621 29.4365 15C29.4365 7.03794 22.9621 0.563486 15 0.563486Z" fill="white"/>
</g>
<defs>
<clipPath id="clip0_2105_1403">
<rect width="30" height="30" fill="white"/>
</clipPath>
</defs>
</svg>
