<svg width="30" height="30" viewBox="0 0 30 30" fill="none" xmlns="http://www.w3.org/2000/svg">
<g clip-path="url(#clip0_2105_1335)">
<path d="M19.2374 9.85547C18.719 9.85547 18.2964 10.2781 18.2964 10.7965C18.2964 11.3149 18.719 11.7375 19.2374 11.7375C19.7558 11.7375 20.1784 11.3149 20.1784 10.7965C20.1784 10.2781 19.7558 9.85547 19.2374 9.85547Z" fill="url(#paint0_linear_2105_1335)"/>
<path d="M15.0677 11.0557C12.8926 11.0557 11.1233 12.825 11.1233 15.0001C11.1233 17.1751 12.8926 18.9445 15.0677 18.9445C17.2428 18.9445 19.0121 17.1751 19.0121 15.0001C19.0121 12.825 17.2428 11.0557 15.0677 11.0557ZM15.0677 17.5245C13.6759 17.5245 12.5433 16.3919 12.5433 15.0001C12.5433 13.6083 13.6759 12.4756 15.0677 12.4756C16.4595 12.4756 17.5921 13.6083 17.5921 15.0001C17.5921 16.3919 16.4595 17.5245 15.0677 17.5245Z" fill="url(#paint1_linear_2105_1335)"/>
<path d="M18.195 23.0011H11.8051C9.15105 23.0011 6.99854 20.8429 6.99854 18.1945V11.8046C6.99854 9.15056 9.15669 6.99805 11.8051 6.99805H18.195C20.849 6.99805 23.0015 9.1562 23.0015 11.8046V18.1945C23.0015 20.8485 20.8434 23.0011 18.195 23.0011ZM11.8051 8.49692C9.98501 8.49692 8.50304 9.97889 8.50304 11.7989V18.1889C8.50304 20.0089 9.98501 21.4909 11.8051 21.4909H18.195C20.0151 21.4909 21.497 20.0089 21.497 18.1889V11.7989C21.497 9.97889 20.0151 8.49692 18.195 8.49692H11.8051Z" fill="url(#paint2_linear_2105_1335)"/>
<path d="M15 30C6.72802 30 0 23.272 0 15C0 6.72802 6.72802 0 15 0C23.272 0 30 6.72802 30 15C30 23.272 23.272 30 15 30ZM15 0.563486C7.03794 0.563486 0.563486 7.03794 0.563486 15C0.563486 22.9621 7.03794 29.4365 15 29.4365C22.9621 29.4365 29.4365 22.9621 29.4365 15C29.4365 7.03794 22.9621 0.563486 15 0.563486Z" fill="url(#paint3_linear_2105_1335)"/>
</g>
<defs>
<linearGradient id="paint0_linear_2105_1335" x1="11.9065" y1="3.77545" x2="26.4219" y2="17.671" gradientUnits="userSpaceOnUse">
<stop stop-color="#FFE185"/>
<stop offset="0.21" stop-color="#FFBB36"/>
<stop offset="0.38" stop-color="#FF5176"/>
<stop offset="0.52" stop-color="#F63395"/>
<stop offset="0.74" stop-color="#A436D2"/>
<stop offset="1" stop-color="#5F4EED"/>
</linearGradient>
<linearGradient id="paint1_linear_2105_1335" x1="7.80999" y1="8.05228" x2="22.3254" y2="21.9479" gradientUnits="userSpaceOnUse">
<stop stop-color="#FFE185"/>
<stop offset="0.21" stop-color="#FFBB36"/>
<stop offset="0.38" stop-color="#FF5176"/>
<stop offset="0.52" stop-color="#F63395"/>
<stop offset="0.74" stop-color="#A436D2"/>
<stop offset="1" stop-color="#5F4EED"/>
</linearGradient>
<linearGradient id="paint2_linear_2105_1335" x1="7.77615" y1="8.08557" x2="22.2972" y2="21.9811" gradientUnits="userSpaceOnUse">
<stop stop-color="#FFE185"/>
<stop offset="0.21" stop-color="#FFBB36"/>
<stop offset="0.38" stop-color="#FF5176"/>
<stop offset="0.52" stop-color="#F63395"/>
<stop offset="0.74" stop-color="#A436D2"/>
<stop offset="1" stop-color="#5F4EED"/>
</linearGradient>
<linearGradient id="paint3_linear_2105_1335" x1="0" y1="15" x2="30" y2="15" gradientUnits="userSpaceOnUse">
<stop stop-color="#FFE185"/>
<stop offset="0.21" stop-color="#FFBB36"/>
<stop offset="0.38" stop-color="#FF5176"/>
<stop offset="0.52" stop-color="#F63395"/>
<stop offset="0.74" stop-color="#A436D2"/>
<stop offset="1" stop-color="#5F4EED"/>
</linearGradient>
<clipPath id="clip0_2105_1335">
<rect width="30" height="30" fill="white"/>
</clipPath>
</defs>
</svg>
