<svg width="30" height="30" viewBox="0 0 30 30" fill="none" xmlns="http://www.w3.org/2000/svg">
<g clip-path="url(#clip0_314_9772)">
<path d="M15 30C6.72802 30 0 23.272 0 15C0 6.72802 6.72802 0 15 0C23.272 0 30 6.72802 30 15C30 23.272 23.272 30 15 30ZM15 0.563486C7.03794 0.563486 0.563486 7.03794 0.563486 15C0.563486 22.9621 7.03794 29.4365 15 29.4365C22.9621 29.4365 29.4365 22.9621 29.4365 15C29.4365 7.03794 22.9621 0.563486 15 0.563486Z" fill="#061F42"/>
<path d="M11.9139 12.0244H9.16406V20.9162H11.9139V12.0244Z" fill="#061F42"/>
<path d="M10.5269 10.8644C11.4285 10.8644 12.1554 10.1319 12.1554 9.22471C12.1554 8.31749 11.4285 7.58496 10.5269 7.58496C9.62533 7.58496 8.89844 8.31749 8.89844 9.22471C8.89844 10.1319 9.62533 10.8644 10.5269 10.8644Z" fill="#061F42"/>
<path d="M16.3146 16.2505C16.3146 14.9996 16.8894 14.2558 17.9938 14.2558C19.0081 14.2558 19.4927 14.9714 19.4927 16.2505V20.9162H22.2312V15.287C22.2312 12.9034 20.8789 11.7539 18.9968 11.7539C17.1148 11.7539 16.3146 13.2246 16.3146 13.2246V12.0244H13.6719V20.9162H16.3146V16.2505Z" fill="#061F42"/>
</g>
<defs>
<clipPath id="clip0_314_9772">
<rect width="30" height="30" fill="white"/>
</clipPath>
</defs>
</svg>
