<svg width="60" height="60" viewBox="0 0 60 60" fill="none" xmlns="http://www.w3.org/2000/svg">
<g clip-path="url(#clip0_264_747)">
<path d="M2.375 33.25C1.625 31.75 1.04167 30.2292 0.625 28.6875C0.208333 27.1458 0 25.5833 0 24C0 19.3333 1.58333 15.4167 4.75 12.25C7.91667 9.08333 11.8333 7.5 16.5 7.5C19.125 7.5 21.625 8.05208 24 9.15625C26.375 10.2604 28.375 11.7917 30 13.75C31.625 11.7917 33.625 10.2604 36 9.15625C38.375 8.05208 40.875 7.5 43.5 7.5C48.1667 7.5 52.0833 9.08333 55.25 12.25C58.4167 15.4167 60 19.3333 60 24C60 25.5833 59.7917 27.1458 59.375 28.6875C58.9583 30.2292 58.375 31.75 57.625 33.25C57.1667 32.4583 56.625 31.75 56 31.125C55.375 30.5 54.6458 30 53.8125 29.625C54.1875 28.6667 54.4792 27.7292 54.6875 26.8125C54.8958 25.8958 55 24.9583 55 24C55 20.75 53.8958 18.0208 51.6875 15.8125C49.4792 13.6042 46.75 12.5 43.5 12.5C40.125 12.5 37.5312 13.4271 35.7188 15.2812C33.9062 17.1354 32 19.2083 30 21.5C28 19.1667 26.0938 17.0833 24.2812 15.25C22.4688 13.4167 19.875 12.5 16.5 12.5C13.25 12.5 10.5208 13.6042 8.3125 15.8125C6.10417 18.0208 5 20.75 5 24C5 24.9583 5.10417 25.8958 5.3125 26.8125C5.52083 27.7292 5.8125 28.6667 6.1875 29.625C5.35417 30 4.625 30.5 4 31.125C3.375 31.75 2.83333 32.4583 2.375 33.25ZM0 55V51.0625C0 49.2292 0.927083 47.7604 2.78125 46.6562C4.63542 45.5521 7.04167 45 10 45C10.5417 45 11.0625 45.0104 11.5625 45.0312C12.0625 45.0521 12.5417 45.1042 13 45.1875C12.4167 46.0208 11.9792 46.9167 11.6875 47.875C11.3958 48.8333 11.25 49.8542 11.25 50.9375V55H0ZM15 55V50.9375C15 48.2292 16.3854 46.0417 19.1562 44.375C21.9271 42.7083 25.5417 41.875 30 41.875C34.5 41.875 38.125 42.7083 40.875 44.375C43.625 46.0417 45 48.2292 45 50.9375V55H15ZM48.75 55V50.9375C48.75 49.8542 48.6146 48.8333 48.3438 47.875C48.0729 46.9167 47.6667 46.0208 47.125 45.1875C47.5833 45.1042 48.0521 45.0521 48.5312 45.0312C49.0104 45.0104 49.5 45 50 45C53 45 55.4167 45.5521 57.25 46.6562C59.0833 47.7604 60 49.2292 60 51.0625V55H48.75ZM10 42.5C8.625 42.5 7.44792 42.0104 6.46875 41.0312C5.48958 40.0521 5 38.875 5 37.5C5 36.0833 5.48958 34.8958 6.46875 33.9375C7.44792 32.9792 8.625 32.5 10 32.5C11.4167 32.5 12.6042 32.9792 13.5625 33.9375C14.5208 34.8958 15 36.0833 15 37.5C15 38.875 14.5208 40.0521 13.5625 41.0312C12.6042 42.0104 11.4167 42.5 10 42.5ZM50 42.5C48.625 42.5 47.4479 42.0104 46.4688 41.0312C45.4896 40.0521 45 38.875 45 37.5C45 36.0833 45.4896 34.8958 46.4688 33.9375C47.4479 32.9792 48.625 32.5 50 32.5C51.4167 32.5 52.6042 32.9792 53.5625 33.9375C54.5208 34.8958 55 36.0833 55 37.5C55 38.875 54.5208 40.0521 53.5625 41.0312C52.6042 42.0104 51.4167 42.5 50 42.5ZM30 40C27.9167 40 26.1458 39.2708 24.6875 37.8125C23.2292 36.3542 22.5 34.5833 22.5 32.5C22.5 30.375 23.2292 28.5938 24.6875 27.1562C26.1458 25.7188 27.9167 25 30 25C32.125 25 33.9062 25.7188 35.3438 27.1562C36.7812 28.5938 37.5 30.375 37.5 32.5C37.5 34.5833 36.7812 36.3542 35.3438 37.8125C33.9062 39.2708 32.125 40 30 40Z" fill="#8BD3FF"/>
</g>
<defs>
<clipPath id="clip0_264_747">
<rect width="60" height="60" fill="white"/>
</clipPath>
</defs>
</svg>
