<svg width="60" height="60" viewBox="0 0 60 60" fill="none" xmlns="http://www.w3.org/2000/svg">
<path d="M13.75 31L4 21.25L13.75 11.5L23.5 21.25L13.75 31ZM22.5 55V42.5C19.9583 42.2917 17.4375 41.9896 14.9375 41.5938C12.4375 41.1979 9.95833 40.6667 7.5 40L8.75 35C12.25 35.9583 15.7604 36.6146 19.2813 36.9688C22.8021 37.3229 26.375 37.5 30 37.5C33.625 37.5 37.1979 37.3229 40.7188 36.9688C44.2396 36.6146 47.75 35.9583 51.25 35L52.5 40C50.0417 40.6667 47.5625 41.1979 45.0625 41.5938C42.5625 41.9896 40.0417 42.2917 37.5 42.5V55H22.5ZM30 17.5C27.9167 17.5 26.1458 16.7708 24.6875 15.3125C23.2292 13.8542 22.5 12.0833 22.5 10C22.5 7.91667 23.2292 6.14583 24.6875 4.6875C26.1458 3.22917 27.9167 2.5 30 2.5C32.0833 2.5 33.8542 3.22917 35.3125 4.6875C36.7708 6.14583 37.5 7.91667 37.5 10C37.5 12.0833 36.7708 13.8542 35.3125 15.3125C33.8542 16.7708 32.0833 17.5 30 17.5ZM30 35C28.625 35 27.4479 34.5104 26.4688 33.5312C25.4896 32.5521 25 31.375 25 30C25 28.625 25.4896 27.4479 26.4688 26.4688C27.4479 25.4896 28.625 25 30 25C31.375 25 32.5521 25.4896 33.5313 26.4688C34.5104 27.4479 35 28.625 35 30C35 31.375 34.5104 32.5521 33.5313 33.5312C32.5521 34.5104 31.375 35 30 35ZM42.625 30L38.375 22.5L42.625 15H51.125L55.375 22.5L51.125 30H42.625Z" fill="#8BD3FF"/>
</svg>
