<svg width="50" height="50" viewBox="0 0 50 50" fill="none" xmlns="http://www.w3.org/2000/svg">
<path d="M25 18.75L17.7084 11.4583L25 4.16663L32.2917 11.4583L25 18.75ZM2.08337 41.6666V33.3333C2.08337 32.1527 2.49136 31.1632 3.30733 30.3645C4.1233 29.5659 5.10421 29.1666 6.25004 29.1666H13.073C13.7674 29.1666 14.4271 29.3402 15.0521 29.6875C15.6771 30.0347 16.1806 30.5034 16.5625 31.0937C17.5695 32.4479 18.8108 33.5069 20.2865 34.2708C21.7622 35.0347 23.3334 35.4166 25 35.4166C26.7014 35.4166 28.29 35.0347 29.7657 34.2708C31.2414 33.5069 32.4653 32.4479 33.4375 31.0937C33.8889 30.5034 34.4184 30.0347 35.0261 29.6875C35.6337 29.3402 36.2674 29.1666 36.9271 29.1666H43.75C44.9306 29.1666 45.9202 29.5659 46.7188 30.3645C47.5174 31.1632 47.9167 32.1527 47.9167 33.3333V41.6666H33.3334V36.927C32.1181 37.7951 30.8073 38.4548 29.4011 38.9062C27.9948 39.3576 26.5278 39.5833 25 39.5833C23.507 39.5833 22.0487 39.3489 20.625 38.8802C19.2014 38.4114 17.882 37.743 16.6667 36.875V41.6666H2.08337ZM8.33337 27.0833C6.59726 27.0833 5.12157 26.4757 3.90629 25.2604C2.69101 24.0451 2.08337 22.5694 2.08337 20.8333C2.08337 19.0625 2.69101 17.5781 3.90629 16.3802C5.12157 15.1823 6.59726 14.5833 8.33337 14.5833C10.1042 14.5833 11.5886 15.1823 12.7865 16.3802C13.9844 17.5781 14.5834 19.0625 14.5834 20.8333C14.5834 22.5694 13.9844 24.0451 12.7865 25.2604C11.5886 26.4757 10.1042 27.0833 8.33337 27.0833ZM41.6667 27.0833C39.9306 27.0833 38.4549 26.4757 37.2396 25.2604C36.0243 24.0451 35.4167 22.5694 35.4167 20.8333C35.4167 19.0625 36.0243 17.5781 37.2396 16.3802C38.4549 15.1823 39.9306 14.5833 41.6667 14.5833C43.4375 14.5833 44.9219 15.1823 46.1198 16.3802C47.3177 17.5781 47.9167 19.0625 47.9167 20.8333C47.9167 22.5694 47.3177 24.0451 46.1198 25.2604C44.9219 26.4757 43.4375 27.0833 41.6667 27.0833Z" fill="#756DDE"/>
</svg>
