<svg width="44" height="40" viewBox="0 0 44 40" fill="none" xmlns="http://www.w3.org/2000/svg">
<path d="M35.5834 39.9167L32.6667 37L35.948 33.6667H27.2501V29.5H35.948L32.6147 26.1667L35.5834 23.25L43.9167 31.5834L35.5834 39.9167ZM4.33341 33.6667C3.18758 33.6667 2.20668 33.2587 1.39071 32.4427C0.574734 31.6268 0.166748 30.6459 0.166748 29.5V4.50004C0.166748 3.35421 0.574734 2.3733 1.39071 1.55733C2.20668 0.74136 3.18758 0.333374 4.33341 0.333374H37.6667C38.8126 0.333374 39.7935 0.74136 40.6095 1.55733C41.4254 2.3733 41.8334 3.35421 41.8334 4.50004V20.75C40.8959 20.1945 39.8977 19.7778 38.8386 19.5C37.7796 19.2223 36.6945 19.0834 35.5834 19.0834C32.1112 19.0834 29.1598 20.2987 26.7292 22.7292C24.2987 25.1598 23.0834 28.1112 23.0834 31.5834V33.6667H4.33341ZM21.0001 19.0834L37.6667 8.66671V4.50004L21.0001 14.9167L4.33341 4.50004V8.66671L21.0001 19.0834Z" fill="#756DDE"/>
</svg>
