<svg width="50" height="50" viewBox="0 0 50 50" fill="none" xmlns="http://www.w3.org/2000/svg">
<path d="M24.9999 27.0833C27.0138 27.0833 28.7326 26.3715 30.1562 24.9479C31.5798 23.5243 32.2916 21.8055 32.2916 19.7916C32.2916 17.7777 31.5798 16.059 30.1562 14.6354C28.7326 13.2118 27.0138 12.5 24.9999 12.5C22.986 12.5 21.2673 13.2118 19.8437 14.6354C18.4201 16.059 17.7083 17.7777 17.7083 19.7916C17.7083 21.8055 18.4201 23.5243 19.8437 24.9479C21.2673 26.3715 22.986 27.0833 24.9999 27.0833ZM24.9999 45.8333C19.9305 44.5486 15.8853 41.7708 12.8645 37.5C9.84367 33.2291 8.33325 28.4375 8.33325 23.125V10.4166L24.9999 4.16663L41.6666 10.4166V23.125C41.6666 28.4375 40.1562 33.2291 37.1353 37.5C34.1145 41.7708 30.0694 44.5486 24.9999 45.8333ZM24.9999 41.4583C27.0485 40.7986 28.8628 39.7656 30.4426 38.3593C32.0225 36.9531 33.4027 35.3645 34.5833 33.5937C33.0902 32.8298 31.5364 32.2482 29.9218 31.8489C28.3072 31.4496 26.6666 31.25 24.9999 31.25C23.3333 31.25 21.6926 31.4496 20.078 31.8489C18.4635 32.2482 16.9096 32.8298 15.4166 33.5937C16.5971 35.3645 17.9773 36.9531 19.5572 38.3593C21.1371 39.7656 22.9513 40.7986 24.9999 41.4583Z" fill="#756DDE"/>
</svg>
