<svg width="50" height="50" viewBox="0 0 50 50" fill="none" xmlns="http://www.w3.org/2000/svg">
<path d="M16.6667 41.6667C15.5208 41.6667 14.5399 41.2587 13.724 40.4427C12.908 39.6268 12.5 38.6459 12.5 37.5V31.25H18.75V26.5625C17.5347 26.4931 16.3802 26.224 15.2865 25.7552C14.1927 25.2865 13.1944 24.5834 12.2917 23.6459V21.3542H9.89583L3.125 14.5834C4.375 12.9862 5.92014 11.8577 7.76042 11.198C9.60069 10.5382 11.4583 10.2084 13.3333 10.2084C14.2708 10.2084 15.1823 10.2778 16.0677 10.4167C16.9531 10.5556 17.8472 10.816 18.75 11.198V8.33337H43.75V35.4167C43.75 37.1528 43.1424 38.6285 41.9271 39.8438C40.7118 41.0591 39.2361 41.6667 37.5 41.6667H16.6667ZM22.9167 31.25H35.4167V35.4167C35.4167 36.007 35.6163 36.5018 36.0156 36.9011C36.4149 37.3004 36.9097 37.5 37.5 37.5C38.0903 37.5 38.5851 37.3004 38.9844 36.9011C39.3837 36.5018 39.5833 36.007 39.5833 35.4167V12.5H22.9167V13.75L35.4167 26.25V29.1667H32.5L26.5625 23.2292L26.1458 23.6459C25.6597 24.132 25.1476 24.566 24.6094 24.948C24.0712 25.3299 23.5069 25.625 22.9167 25.8334V31.25ZM11.6667 17.1875H16.4583V21.6667C16.875 21.9445 17.309 22.1355 17.7604 22.2396C18.2118 22.3438 18.6806 22.3959 19.1667 22.3959C19.9653 22.3959 20.6858 22.2743 21.3281 22.0313C21.9705 21.7882 22.6042 21.3542 23.2292 20.7292L23.6458 20.3125L20.7292 17.3959C19.7222 16.3889 18.5938 15.6337 17.3438 15.1302C16.0938 14.6268 14.7569 14.375 13.3333 14.375C12.6389 14.375 11.9792 14.4271 11.3542 14.5313C10.7292 14.6355 10.1042 14.7917 9.47917 15L11.6667 17.1875Z" fill="#756DDE"/>
</svg>
