<svg width="156" height="60" viewBox="0 0 156 60" fill="none" xmlns="http://www.w3.org/2000/svg">
<g clip-path="url(#clip0_314_9694)">
<path d="M9.97188 35.1871L20.9482 46.1634L15.4118 51.6997L4.43552 40.7234C1.57493 37.8629 0 34.0541 0 30.0043C0 25.9545 1.57493 22.1457 4.43552 19.2771L15.4118 8.30078L20.9482 13.8371L9.97991 24.8134C8.5898 26.2036 7.82644 28.0436 7.82644 30.0043C7.82644 31.9649 8.5898 33.805 9.97188 35.1871Z" fill="url(#paint0_linear_314_9694)"/>
<path d="M42.997 40.7234L32.0207 51.6997L26.4844 46.1634L29.0075 43.6403L37.4607 35.1871C40.3213 32.3265 40.3213 27.674 37.4607 24.8134L29.0075 16.3602L26.4844 13.8371L32.0207 8.30078L42.997 19.2771C48.9111 25.1911 48.9111 34.8094 42.997 40.7234Z" fill="url(#paint1_linear_314_9694)"/>
<path d="M23.7099 0.00493525L18.1758 5.53906L23.7099 11.0732L29.244 5.53906L23.7099 0.00493525Z" fill="url(#paint2_linear_314_9694)"/>
<path d="M23.7186 43.3983H23.7106L21.1875 40.8752L21.1955 40.8672L23.7186 43.3983Z" fill="url(#paint3_linear_314_9694)"/>
<path d="M26.2419 40.8752L23.7188 43.3983L26.2419 40.8672V40.8752Z" fill="url(#paint4_linear_314_9694)"/>
<path d="M23.7138 48.9249L18.1797 54.459L23.7138 59.9931L29.2479 54.459L23.7138 48.9249Z" fill="url(#paint5_linear_314_9694)"/>
<path d="M34.5274 32.5915L26.251 40.8759L23.7279 43.399L21.2048 40.8759L12.9204 32.5995C11.4901 31.1692 11.4901 28.847 12.9204 27.4247L23.736 16.6172L34.5435 27.4247C35.9738 28.855 35.9738 31.1692 34.5435 32.5995L34.5274 32.5915Z" fill="url(#paint6_linear_314_9694)"/>
<path d="M26.2417 40.8752L23.7186 43.3983H23.7106L21.1875 40.8752L21.1955 40.8672L23.7186 43.3983L26.2417 40.8672V40.8752Z" fill="url(#paint7_linear_314_9694)"/>
<path d="M60.6104 44.4824C61.3175 44.4824 61.9122 44.603 62.4184 44.836C62.9166 45.069 63.3023 45.4065 63.5755 45.8484C63.8487 46.2904 63.9853 46.8207 63.9853 47.4394C63.9853 48.0582 63.8487 48.5885 63.5755 49.0304C63.3023 49.4724 62.9166 49.8099 62.4184 50.0429C61.9202 50.2759 61.3175 50.3964 60.6104 50.3964H58.6819V53.6427H56.7695V44.4824H60.6185H60.6104ZM60.3131 48.8858C60.8836 48.8858 61.3175 48.7653 61.6068 48.5162C61.8961 48.2751 62.0407 47.9135 62.0407 47.4394C62.0407 46.9653 61.8961 46.5957 61.6068 46.3547C61.3175 46.1136 60.8917 45.9931 60.3131 45.9931H58.6739V48.8778H60.3131V48.8858Z" fill="#2C296D"/>
<path d="M65.5352 53.6436V46.7011H67.1904L67.319 48.059C67.5038 47.5769 67.777 47.2073 68.1306 46.9501C68.4841 46.693 68.9341 46.5645 69.4725 46.5645C69.6332 46.5645 69.7698 46.5805 69.9064 46.6046C70.035 46.6287 70.1394 46.6689 70.2278 46.7171L70.0028 48.3162C69.9064 48.276 69.7939 48.2519 69.6653 48.2358C69.5287 48.2197 69.36 48.2037 69.143 48.2037C68.8618 48.2037 68.5966 48.2679 68.3395 48.4046C68.0824 48.5412 67.8654 48.742 67.7047 49.0152C67.536 49.2884 67.4556 49.634 67.4556 50.0518V53.6436H65.5512H65.5352Z" fill="#2C296D"/>
<path d="M72.3492 45.705C71.9474 45.705 71.6581 45.6167 71.4572 45.4479C71.2564 45.2792 71.168 45.022 71.168 44.6926C71.168 44.3631 71.2644 44.0899 71.4572 43.9212C71.6501 43.7525 71.9474 43.6641 72.3492 43.6641C72.7509 43.6641 73.0402 43.7525 73.2411 43.9212C73.4339 44.0899 73.5304 44.3471 73.5304 44.6926C73.5304 45.0381 73.4339 45.2792 73.2411 45.4479C73.0482 45.6167 72.7509 45.705 72.3492 45.705ZM73.2973 46.7095V53.652H71.393V46.7095H73.2973Z" fill="#2C296D"/>
<path d="M79.8634 46.709H81.832L79.1964 53.6515H77.0028L74.3672 46.709H76.4082L78.1117 52.1891L79.8634 46.709Z" fill="#2C296D"/>
<path d="M86.6941 49.2159C86.6941 48.8141 86.5816 48.5088 86.3566 48.2838C86.1316 48.0588 85.8343 47.9543 85.4647 47.9543C85.1192 47.9543 84.8219 48.0427 84.5647 48.2195C84.3076 48.3963 84.1148 48.6856 83.9942 49.0954L82.3711 48.5972C82.5318 47.9865 82.8693 47.4963 83.4077 47.1267C83.938 46.7571 84.6531 46.5723 85.5531 46.5723C86.1638 46.5723 86.6941 46.6687 87.1521 46.8535C87.6021 47.0464 87.9557 47.3276 88.2128 47.7053C88.4699 48.0829 88.5905 48.565 88.5905 49.1355V51.956C88.5905 52.3095 88.7592 52.4863 89.0887 52.4863C89.2494 52.4863 89.394 52.4622 89.5306 52.414L89.4181 53.5952C89.177 53.7157 88.8797 53.7719 88.5181 53.7719C88.1967 53.7719 87.8994 53.7157 87.6423 53.6032C87.3852 53.4907 87.1762 53.322 87.0316 53.097C86.887 52.872 86.8066 52.5827 86.8066 52.2452V52.189L87.1441 52.1327C87.0878 52.4863 86.9352 52.7836 86.6861 53.0247C86.437 53.2657 86.1316 53.4586 85.7781 53.5871C85.4245 53.7157 85.0549 53.78 84.6772 53.78C84.2032 53.78 83.8014 53.7077 83.4559 53.563C83.1103 53.4184 82.8532 53.2095 82.6684 52.9282C82.4836 52.647 82.3872 52.3095 82.3872 51.8997C82.3872 51.3774 82.5559 50.9596 82.8854 50.6301C83.2148 50.3007 83.6969 50.0757 84.3156 49.9551L86.9271 49.4248L86.9111 50.606L85.2477 50.9435C84.9344 51.0078 84.6933 51.0962 84.5326 51.2006C84.3719 51.3051 84.2915 51.4819 84.2915 51.7229C84.2915 51.964 84.3799 52.1327 84.5487 52.2533C84.7174 52.3738 84.9263 52.43 85.1674 52.43C85.3602 52.43 85.5531 52.4059 85.7379 52.3577C85.9227 52.3095 86.0915 52.2372 86.2361 52.1327C86.3807 52.0283 86.5013 51.8917 86.5816 51.7149C86.662 51.5381 86.7102 51.3292 86.7102 51.0801V49.2079L86.6941 49.2159Z" fill="#2C296D"/>
<path d="M95.1068 46.7094V48.1237H89.707V46.7094H95.1068ZM92.881 44.5801V51.378C92.881 51.7155 92.9694 51.9565 93.1381 52.1092C93.3069 52.2619 93.5399 52.3422 93.8372 52.3422C94.0783 52.3422 94.2792 52.3101 94.4559 52.2378C94.6247 52.1655 94.7854 52.0771 94.922 51.9565L95.2273 53.2181C95.0023 53.3949 94.7291 53.5315 94.3916 53.6359C94.0622 53.7404 93.7086 53.7886 93.339 53.7886C92.873 53.7886 92.4632 53.7163 92.1096 53.5797C91.756 53.4431 91.4748 53.2181 91.2739 52.9127C91.073 52.6074 90.9766 52.1976 90.9766 51.6914V45.1104L92.881 44.5801Z" fill="#2C296D"/>
<path d="M99.6157 53.7885C98.8845 53.7885 98.2497 53.6438 97.7033 53.3546C97.1649 53.0653 96.7471 52.6555 96.4498 52.1171C96.1524 51.5787 96.0078 50.9359 96.0078 50.1726C96.0078 49.4092 96.1524 48.7664 96.4498 48.228C96.7471 47.6896 97.1569 47.2798 97.6952 46.9906C98.2256 46.7013 98.8363 46.5566 99.5193 46.5566C100.202 46.5566 100.821 46.7013 101.311 46.9825C101.801 47.2638 102.179 47.6495 102.436 48.1316C102.693 48.6137 102.822 49.1681 102.822 49.7869C102.822 49.9717 102.822 50.1484 102.806 50.3172C102.798 50.4859 102.782 50.6306 102.766 50.7591H97.2292V49.4413H101.938L101.022 49.7788C101.022 49.1922 100.893 48.7503 100.628 48.4289C100.363 48.1155 99.9933 47.9548 99.5112 47.9548C99.1577 47.9548 98.8604 48.0351 98.6032 48.2039C98.3461 48.3726 98.1532 48.6217 98.0247 48.9431C97.8961 49.2726 97.8318 49.6824 97.8318 50.1886C97.8318 50.6948 97.9042 51.0805 98.0488 51.402C98.1934 51.7234 98.3943 51.9564 98.6595 52.1171C98.9246 52.2778 99.238 52.3501 99.6076 52.3501C100.017 52.3501 100.347 52.2698 100.596 52.1171C100.845 51.9564 101.038 51.7394 101.183 51.4662L102.693 52.0528C102.549 52.4144 102.324 52.7278 102.018 52.9849C101.713 53.2421 101.359 53.4429 100.95 53.5715C100.54 53.7081 100.098 53.7724 99.6237 53.7724L99.6157 53.7885Z" fill="#2C296D"/>
<path d="M110.332 53.6427L107.664 44.4824H109.705L111.513 52.0517L113.345 44.4824H115.177L117.033 52.0517L118.825 44.4824H120.786L118.118 53.6427H115.965L114.687 48.6447L114.253 46.4832H114.229L113.795 48.6447L112.533 53.6427H110.324H110.332Z" fill="#2C296D"/>
<path d="M124.643 53.7885C123.912 53.7885 123.277 53.6438 122.731 53.3546C122.192 53.0653 121.774 52.6555 121.477 52.1171C121.18 51.5787 121.035 50.9359 121.035 50.1726C121.035 49.4092 121.18 48.7664 121.477 48.228C121.774 47.6896 122.184 47.2798 122.723 46.9906C123.253 46.7013 123.864 46.5566 124.547 46.5566C125.23 46.5566 125.848 46.7013 126.338 46.9825C126.829 47.2638 127.206 47.6495 127.463 48.1316C127.721 48.6137 127.849 49.1681 127.849 49.7869C127.849 49.9717 127.849 50.1484 127.833 50.3172C127.825 50.4859 127.809 50.6306 127.793 50.7591H122.257V49.4413H126.965L126.049 49.7788C126.049 49.1922 125.921 48.7503 125.655 48.4289C125.39 48.1155 125.021 47.9548 124.539 47.9548C124.185 47.9548 123.888 48.0351 123.631 48.2039C123.373 48.3726 123.181 48.6217 123.052 48.9431C122.923 49.2726 122.859 49.6824 122.859 50.1886C122.859 50.6948 122.931 51.0805 123.076 51.402C123.221 51.7234 123.422 51.9564 123.687 52.1171C123.952 52.2778 124.265 52.3501 124.635 52.3501C125.045 52.3501 125.374 52.2698 125.623 52.1171C125.872 51.9564 126.065 51.7394 126.21 51.4662L127.721 52.0528C127.576 52.4144 127.351 52.7278 127.046 52.9849C126.74 53.2421 126.387 53.4429 125.977 53.5715C125.567 53.7081 125.125 53.7724 124.651 53.7724L124.643 53.7885Z" fill="#2C296D"/>
<path d="M133.421 49.2159C133.421 48.8141 133.308 48.5088 133.083 48.2838C132.858 48.0588 132.561 47.9543 132.191 47.9543C131.846 47.9543 131.548 48.0427 131.291 48.2195C131.034 48.3963 130.841 48.6856 130.721 49.0954L129.098 48.5972C129.258 47.9865 129.596 47.4963 130.134 47.1267C130.665 46.7571 131.38 46.5723 132.28 46.5723C132.89 46.5723 133.421 46.6687 133.879 46.8535C134.329 47.0464 134.682 47.3276 134.939 47.7053C135.196 48.0829 135.317 48.565 135.317 49.1355V51.956C135.317 52.3095 135.486 52.4863 135.815 52.4863C135.976 52.4863 136.121 52.4622 136.257 52.414L136.145 53.5952C135.904 53.7157 135.606 53.7719 135.245 53.7719C134.923 53.7719 134.626 53.7157 134.369 53.6032C134.112 53.4907 133.903 53.322 133.758 53.097C133.614 52.872 133.533 52.5827 133.533 52.2452V52.189L133.871 52.1327C133.814 52.4863 133.662 52.7836 133.413 53.0247C133.164 53.2657 132.858 53.4586 132.505 53.5871C132.151 53.7157 131.781 53.78 131.404 53.78C130.93 53.78 130.528 53.7077 130.182 53.563C129.837 53.4184 129.58 53.2095 129.395 52.9282C129.21 52.647 129.114 52.3095 129.114 51.8997C129.114 51.3774 129.282 50.9596 129.612 50.6301C129.941 50.3007 130.423 50.0757 131.042 49.9551L133.654 49.4248L133.638 50.606L131.974 50.9435C131.661 51.0078 131.42 51.0962 131.259 51.2006C131.098 51.3051 131.018 51.4819 131.018 51.7229C131.018 51.964 131.106 52.1327 131.275 52.2533C131.444 52.3738 131.653 52.43 131.894 52.43C132.087 52.43 132.28 52.4059 132.464 52.3577C132.649 52.3095 132.818 52.2372 132.963 52.1327C133.107 52.0283 133.228 51.8917 133.308 51.7149C133.389 51.5381 133.437 51.3292 133.437 51.0801V49.2079L133.421 49.2159Z" fill="#2C296D"/>
<path d="M139.303 43.6641V51.5066C139.303 51.828 139.359 52.053 139.472 52.1896C139.584 52.3181 139.769 52.3824 140.026 52.3824C140.187 52.3824 140.315 52.3744 140.412 52.3503C140.516 52.3262 140.645 52.294 140.797 52.2458L140.629 53.4913C140.468 53.5877 140.275 53.66 140.042 53.7083C139.809 53.7565 139.576 53.7806 139.343 53.7806C138.668 53.7806 138.178 53.6199 137.864 53.2904C137.551 52.961 137.398 52.4387 137.398 51.7155V43.6641H139.303Z" fill="#2C296D"/>
<path d="M146.283 46.7094V48.1237H140.883V46.7094H146.283ZM144.065 44.5801V51.378C144.065 51.7155 144.153 51.9565 144.322 52.1092C144.491 52.2619 144.724 52.3422 145.021 52.3422C145.262 52.3422 145.463 52.3101 145.64 52.2378C145.808 52.1655 145.969 52.0771 146.106 51.9565L146.411 53.2181C146.186 53.3949 145.913 53.5315 145.575 53.6359C145.246 53.7404 144.892 53.7886 144.523 53.7886C144.057 53.7886 143.647 53.7163 143.293 53.5797C142.94 53.4431 142.659 53.2181 142.458 52.9127C142.257 52.6074 142.16 52.1976 142.16 51.6914V45.1104L144.065 44.5801Z" fill="#2C296D"/>
<path d="M147.691 53.644V43.6641H149.596V47.8826C149.821 47.4407 150.126 47.1112 150.512 46.8943C150.898 46.6773 151.339 46.5648 151.83 46.5648C152.32 46.5648 152.738 46.6612 153.115 46.8461C153.493 47.0309 153.782 47.3121 154.007 47.6817C154.232 48.0514 154.337 48.5255 154.337 49.0879V53.644H152.432V49.6424C152.432 49.0397 152.32 48.6299 152.087 48.3969C151.854 48.1639 151.556 48.0594 151.195 48.0594C150.93 48.0594 150.673 48.1237 150.423 48.2442C150.174 48.3728 149.981 48.5737 149.829 48.8549C149.676 49.1361 149.596 49.5058 149.596 49.9718V53.6359H147.691V53.644Z" fill="#2C296D"/>
<path d="M78.8282 8.4043V12.8157H70.0375V34.6397H64.5494V12.8237H55.7266V8.41233H78.8282V8.4043Z" fill="#2C296D"/>
<path d="M92.1406 8.00999C94.5272 8.00999 96.6163 8.41979 98.4243 9.2394C100.224 10.059 101.767 11.2804 103.037 12.8955L99.9751 16.431C98.8903 15.057 97.7011 14.0365 96.4155 13.3856C95.1298 12.7348 93.6352 12.4134 91.9398 12.4134C90.8229 12.4134 89.9068 12.558 89.1756 12.8473C88.4444 13.1365 87.9141 13.5222 87.5846 14.0044C87.2552 14.4785 87.0864 15.0088 87.0864 15.5954C87.0864 16.3105 87.3676 16.9132 87.9221 17.4033C88.4765 17.8935 89.4327 18.2952 90.7827 18.6167L95.6762 19.7336C98.2716 20.3202 100.136 21.188 101.261 22.337C102.386 23.4941 102.948 24.9807 102.948 26.8127C102.948 28.5403 102.498 30.0108 101.598 31.2482C100.698 32.4776 99.4368 33.4258 97.8216 34.0687C96.2065 34.7195 94.3504 35.0409 92.2531 35.0409C90.4211 35.0409 88.7497 34.824 87.223 34.382C85.6963 33.9481 84.3383 33.3455 83.1491 32.5741C81.9599 31.8027 80.9635 30.9188 80.168 29.9144L83.2696 26.2181C83.8803 27.0699 84.6356 27.8252 85.5356 28.4841C86.4355 29.143 87.4641 29.6733 88.6131 30.051C89.7702 30.4367 90.9755 30.6295 92.2531 30.6295C93.3379 30.6295 94.262 30.501 95.0173 30.2519C95.7726 30.0028 96.3431 29.6412 96.7288 29.1751C97.1145 28.7091 97.3074 28.1466 97.3074 27.4877C97.3074 26.8288 97.0744 26.2101 96.6083 25.7199C96.1423 25.2298 95.2905 24.8521 94.045 24.5869L88.7176 23.3977C87.1828 23.0281 85.865 22.5459 84.7642 21.9433C83.6633 21.3406 82.8277 20.5773 82.2572 19.6371C81.6867 18.697 81.4054 17.5801 81.4054 16.2784C81.4054 14.7115 81.8313 13.3133 82.675 12.0598C83.5267 10.8143 84.7481 9.82598 86.3552 9.09476C87.9623 8.36354 89.8907 8.00195 92.1406 8.00195V8.00999Z" fill="#2C296D"/>
<path d="M130.71 34.6478H125.021L122.835 28.2436H112.775L110.589 34.6478H104.98L114.559 8.4043H121.115L130.694 34.6478H130.71ZM114.012 24.1938H121.606L117.789 12.7434L114.012 24.1938Z" fill="#2C296D"/>
<path d="M145.618 8.4043C147.635 8.4043 149.354 8.74178 150.785 9.41675C152.215 10.0917 153.324 11.064 154.103 12.3175C154.883 13.5791 155.277 15.0977 155.277 16.8736C155.277 18.6494 154.883 20.1681 154.103 21.4296C153.324 22.6912 152.215 23.6554 150.785 24.3304C149.354 25.0053 147.627 25.3428 145.618 25.3428H140.09V34.6478H134.602V8.4043H145.618ZM144.782 21.0118C146.422 21.0118 147.659 20.6582 148.479 19.9591C149.298 19.2601 149.708 18.2315 149.708 16.8816C149.708 15.5317 149.298 14.471 148.479 13.78C147.659 13.0889 146.422 12.7434 144.782 12.7434H140.09V21.0118H144.782Z" fill="#2C296D"/>
</g>
<defs>
<linearGradient id="paint0_linear_314_9694" x1="10.4781" y1="57.2441" x2="10.4781" y2="1.84036" gradientUnits="userSpaceOnUse">
<stop stop-color="#2C296D"/>
<stop offset="1" stop-color="#4A50A2"/>
</linearGradient>
<linearGradient id="paint1_linear_314_9694" x1="36.9544" y1="57.2441" x2="36.9544" y2="1.84036" gradientUnits="userSpaceOnUse">
<stop stop-color="#2C296D"/>
<stop offset="1" stop-color="#4A50A2"/>
</linearGradient>
<linearGradient id="paint2_linear_314_9694" x1="23.7199" y1="-0.000746528" x2="23.7199" y2="1.83935" gradientUnits="userSpaceOnUse">
<stop stop-color="#2C296D"/>
<stop offset="1" stop-color="#4A50A2"/>
</linearGradient>
<linearGradient id="paint3_linear_314_9694" x1="22.4491" y1="57.2432" x2="22.4491" y2="1.83949" gradientUnits="userSpaceOnUse">
<stop stop-color="#2C296D"/>
<stop offset="1" stop-color="#4A50A2"/>
</linearGradient>
<linearGradient id="paint4_linear_314_9694" x1="24.9803" y1="57.2432" x2="24.9803" y2="1.83949" gradientUnits="userSpaceOnUse">
<stop stop-color="#2C296D"/>
<stop offset="1" stop-color="#4A50A2"/>
</linearGradient>
<linearGradient id="paint5_linear_314_9694" x1="23.7181" y1="-0.00727435" x2="23.7181" y2="1.83282" gradientUnits="userSpaceOnUse">
<stop stop-color="#2C296D"/>
<stop offset="1" stop-color="#4A50A2"/>
</linearGradient>
<linearGradient id="paint6_linear_314_9694" x1="23.7119" y1="57.2439" x2="23.7119" y2="1.84017" gradientUnits="userSpaceOnUse">
<stop stop-color="#2C296D"/>
<stop offset="1" stop-color="#4A50A2"/>
</linearGradient>
<linearGradient id="paint7_linear_314_9694" x1="23.7186" y1="57.2432" x2="23.7186" y2="1.83949" gradientUnits="userSpaceOnUse">
<stop stop-color="#2C296D"/>
<stop offset="1" stop-color="#4A50A2"/>
</linearGradient>
<clipPath id="clip0_314_9694">
<rect width="155.283" height="60" fill="white"/>
</clipPath>
</defs>
</svg>
