<svg width="30" height="30" viewBox="0 0 30 30" fill="none" xmlns="http://www.w3.org/2000/svg">
<g clip-path="url(#clip0_2105_1325)">
<path d="M15 30C6.72802 30 0 23.272 0 15C0 6.72802 6.72802 0 15 0C23.272 0 30 6.72802 30 15C30 23.272 23.272 30 15 30ZM15 0.563486C7.03794 0.563486 0.563486 7.03794 0.563486 15C0.563486 22.9621 7.03794 29.4365 15 29.4365C22.9621 29.4365 29.4365 22.9621 29.4365 15C29.4365 7.03794 22.9621 0.563486 15 0.563486Z" fill="#181818"/>
<path d="M21.6097 21.2882L16.4369 13.7713L15.8508 12.9204L12.1487 7.54476L11.8445 7.09961H7.29712L8.40719 8.71118L13.3264 15.8618L13.9124 16.7127L17.8625 22.4546L18.1668 22.8998H22.7141L21.604 21.2882H21.6097ZM18.7133 21.8686L14.6055 15.9013L14.0195 15.0504L9.25242 8.12515H11.3035L15.1578 13.7262L15.7438 14.5771L20.7644 21.8686H18.7133Z" fill="#181818"/>
<path d="M14.0196 15.0566L14.6056 15.9019L13.9125 16.7077L8.5932 22.9004H7.28027L13.3265 15.8624L14.0196 15.0566Z" fill="#181818"/>
<path d="M22.1731 7.09961L16.4368 13.7713L15.7437 14.5771L15.1577 13.7262L15.8508 12.9204L19.7389 8.40126L20.8602 7.09961H22.1731Z" fill="#181818"/>
</g>
<defs>
<clipPath id="clip0_2105_1325">
<rect width="30" height="30" fill="white"/>
</clipPath>
</defs>
</svg>
