<svg width="52" height="53" viewBox="0 0 52 53" fill="none" xmlns="http://www.w3.org/2000/svg">
<path d="M9.75 29L0 19.25L9.75 9.5L19.5 19.25L9.75 29ZM18.5 53V40.5C15.9583 40.2917 13.4375 39.9896 10.9375 39.5938C8.4375 39.1979 5.95833 38.6667 3.5 38L4.75 33C8.25 33.9583 11.7604 34.6146 15.2813 34.9688C18.8021 35.3229 22.375 35.5 26 35.5C29.625 35.5 33.1979 35.3229 36.7188 34.9688C40.2396 34.6146 43.75 33.9583 47.25 33L48.5 38C46.0417 38.6667 43.5625 39.1979 41.0625 39.5938C38.5625 39.9896 36.0417 40.2917 33.5 40.5V53H18.5ZM26 15.5C23.9167 15.5 22.1458 14.7708 20.6875 13.3125C19.2292 11.8542 18.5 10.0833 18.5 8C18.5 5.91667 19.2292 4.14583 20.6875 2.6875C22.1458 1.22917 23.9167 0.5 26 0.5C28.0833 0.5 29.8542 1.22917 31.3125 2.6875C32.7708 4.14583 33.5 5.91667 33.5 8C33.5 10.0833 32.7708 11.8542 31.3125 13.3125C29.8542 14.7708 28.0833 15.5 26 15.5ZM26 33C24.625 33 23.4479 32.5104 22.4688 31.5312C21.4896 30.5521 21 29.375 21 28C21 26.625 21.4896 25.4479 22.4688 24.4688C23.4479 23.4896 24.625 23 26 23C27.375 23 28.5521 23.4896 29.5313 24.4688C30.5104 25.4479 31 26.625 31 28C31 29.375 30.5104 30.5521 29.5313 31.5312C28.5521 32.5104 27.375 33 26 33ZM38.625 28L34.375 20.5L38.625 13H47.125L51.375 20.5L47.125 28H38.625Z" fill="#8BD3FF"/>
</svg>
