<svg width="60" height="48" viewBox="0 0 60 48" fill="none" xmlns="http://www.w3.org/2000/svg">
<path d="M2.375 26.25C1.625 24.75 1.04167 23.2292 0.625 21.6875C0.208333 20.1458 0 18.5833 0 17C0 12.3333 1.58333 8.41667 4.75 5.25C7.91667 2.08333 11.8333 0.5 16.5 0.5C19.125 0.5 21.625 1.05208 24 2.15625C26.375 3.26042 28.375 4.79167 30 6.75C31.625 4.79167 33.625 3.26042 36 2.15625C38.375 1.05208 40.875 0.5 43.5 0.5C48.1667 0.5 52.0833 2.08333 55.25 5.25C58.4167 8.41667 60 12.3333 60 17C60 18.5833 59.7917 20.1458 59.375 21.6875C58.9583 23.2292 58.375 24.75 57.625 26.25C57.1667 25.4583 56.625 24.75 56 24.125C55.375 23.5 54.6458 23 53.8125 22.625C54.1875 21.6667 54.4792 20.7292 54.6875 19.8125C54.8958 18.8958 55 17.9583 55 17C55 13.75 53.8958 11.0208 51.6875 8.8125C49.4792 6.60417 46.75 5.5 43.5 5.5C40.125 5.5 37.5312 6.42708 35.7188 8.28125C33.9062 10.1354 32 12.2083 30 14.5C28 12.1667 26.0938 10.0833 24.2812 8.25C22.4688 6.41667 19.875 5.5 16.5 5.5C13.25 5.5 10.5208 6.60417 8.3125 8.8125C6.10417 11.0208 5 13.75 5 17C5 17.9583 5.10417 18.8958 5.3125 19.8125C5.52083 20.7292 5.8125 21.6667 6.1875 22.625C5.35417 23 4.625 23.5 4 24.125C3.375 24.75 2.83333 25.4583 2.375 26.25ZM0 48V44.0625C0 42.2292 0.927083 40.7604 2.78125 39.6562C4.63542 38.5521 7.04167 38 10 38C10.5417 38 11.0625 38.0104 11.5625 38.0312C12.0625 38.0521 12.5417 38.1042 13 38.1875C12.4167 39.0208 11.9792 39.9167 11.6875 40.875C11.3958 41.8333 11.25 42.8542 11.25 43.9375V48H0ZM15 48V43.9375C15 41.2292 16.3854 39.0417 19.1562 37.375C21.9271 35.7083 25.5417 34.875 30 34.875C34.5 34.875 38.125 35.7083 40.875 37.375C43.625 39.0417 45 41.2292 45 43.9375V48H15ZM48.75 48V43.9375C48.75 42.8542 48.6146 41.8333 48.3438 40.875C48.0729 39.9167 47.6667 39.0208 47.125 38.1875C47.5833 38.1042 48.0521 38.0521 48.5312 38.0312C49.0104 38.0104 49.5 38 50 38C53 38 55.4167 38.5521 57.25 39.6562C59.0833 40.7604 60 42.2292 60 44.0625V48H48.75ZM10 35.5C8.625 35.5 7.44792 35.0104 6.46875 34.0312C5.48958 33.0521 5 31.875 5 30.5C5 29.0833 5.48958 27.8958 6.46875 26.9375C7.44792 25.9792 8.625 25.5 10 25.5C11.4167 25.5 12.6042 25.9792 13.5625 26.9375C14.5208 27.8958 15 29.0833 15 30.5C15 31.875 14.5208 33.0521 13.5625 34.0312C12.6042 35.0104 11.4167 35.5 10 35.5ZM50 35.5C48.625 35.5 47.4479 35.0104 46.4688 34.0312C45.4896 33.0521 45 31.875 45 30.5C45 29.0833 45.4896 27.8958 46.4688 26.9375C47.4479 25.9792 48.625 25.5 50 25.5C51.4167 25.5 52.6042 25.9792 53.5625 26.9375C54.5208 27.8958 55 29.0833 55 30.5C55 31.875 54.5208 33.0521 53.5625 34.0312C52.6042 35.0104 51.4167 35.5 50 35.5ZM30 33C27.9167 33 26.1458 32.2708 24.6875 30.8125C23.2292 29.3542 22.5 27.5833 22.5 25.5C22.5 23.375 23.2292 21.5938 24.6875 20.1562C26.1458 18.7188 27.9167 18 30 18C32.125 18 33.9062 18.7188 35.3438 20.1562C36.7812 21.5938 37.5 23.375 37.5 25.5C37.5 27.5833 36.7812 29.3542 35.3438 30.8125C33.9062 32.2708 32.125 33 30 33Z" fill="#8BD3FF"/>
</svg>
